<mxfile host="app.diagrams.net" modified="2024-04-27T14:17:31.442Z" agent="Mozilla/5.0 (Windows NT 10.0; Win64; x64) AppleWebKit/537.36 (KHTML, like Gecko) Chrome/124.0.0.0 Safari/537.36" version="23.1.5" etag="KytPbcr1xWmA3z3Te22J" type="github">
  <diagram name="Seite-1" id="HyZT6oqMoK3z-srBMmhH">
    <mxGraphModel>
      <root>
        <mxCell id="0" />
        <mxCell id="1" parent="0" />
      </root>
    </mxGraphModel>
  </diagram>
</mxfile>
